<?xml version="1.0" encoding="UTF-8" standalone="no"?>
<!-- Created with Inkscape (http://www.inkscape.org/) -->

<svg
   xmlns:dc="http://purl.org/dc/elements/1.1/"
   xmlns:cc="http://creativecommons.org/ns#"
   xmlns:rdf="http://www.w3.org/1999/02/22-rdf-syntax-ns#"
   xmlns:svg="http://www.w3.org/2000/svg"
   xmlns="http://www.w3.org/2000/svg"
   xmlns:sodipodi="http://sodipodi.sourceforge.net/DTD/sodipodi-0.dtd"
   xmlns:inkscape="http://www.inkscape.org/namespaces/inkscape"
   width="210mm"
   height="297mm"
   viewBox="0 0 210 297"
   version="1.1"
   id="svg8"
   inkscape:version="0.92.4 (5da689c313, 2019-01-14)"
   sodipodi:docname="vegas.svg">
  <defs
     id="defs2" />
  <sodipodi:namedview
     id="base"
     pagecolor="#ffffff"
     bordercolor="#666666"
     borderopacity="1.0"
     inkscape:pageopacity="0.0"
     inkscape:pageshadow="2"
     inkscape:zoom="0.35"
     inkscape:cx="-78.571429"
     inkscape:cy="560"
     inkscape:document-units="mm"
     inkscape:current-layer="layer1"
     showgrid="false"
     inkscape:window-width="1920"
     inkscape:window-height="1017"
     inkscape:window-x="-8"
     inkscape:window-y="-8"
     inkscape:window-maximized="1" />
  <metadata
     id="metadata5">
    <rdf:RDF>
      <cc:Work
         rdf:about="">
        <dc:format>image/svg+xml</dc:format>
        <dc:type
           rdf:resource="http://purl.org/dc/dcmitype/StillImage" />
        <dc:title></dc:title>
      </cc:Work>
    </rdf:RDF>
  </metadata>
  <g
     inkscape:label="Livello 1"
     inkscape:groupmode="layer"
     id="layer1">
    <g
       id="g842"
       transform="translate(10.583337,-2.2678567)">
      <path
         style="fill:#0f93cd;stroke-width:0.16177382"
         d="M 19.654755,127.66667 V 46.779758 h 80.886905 80.88691 v 80.886912 80.88691 H 100.54166 19.654755 Z"
         id="path858"
         inkscape:connector-curvature="0" />
      <path
         style="fill:#0d84b8;stroke-width:0.16177382"
         d="m 25.18742,203.02091 c -0.283017,-0.28301 -0.283017,-150.425471 0,-150.708487 0.283016,-0.283017 150.42547,-0.283017 150.70849,0 0.28302,0.283016 0.28302,150.425477 0,150.708487 -0.28302,0.28302 -150.425474,0.28302 -150.70849,0 z m 97.67903,-75.05781 c 9.83181,-24.39366 17.92826,-44.485731 17.99213,-44.649054 0.11138,-0.284837 -0.12624,-0.296828 -5.82386,-0.293916 l -5.93998,0.003 -13.01443,34.00991 c -12.73731,33.28574 -14.17517,37.14175 -15.93935,42.74569 -0.719351,2.28503 -0.921181,2.75868 -1.193361,2.80056 -0.279655,0.043 -0.377226,-0.12264 -0.666875,-1.13241 -1.258028,-4.3857 -4.748232,-14.13288 -15.832086,-44.21466 l -12.577024,-34.134276 -6.323873,-0.0423 -6.323872,-0.0423 7.663179,19.212496 c 4.214749,10.56688 12.227607,30.66003 17.806352,44.65144 l 10.143175,25.43893 6.076935,-5.1e-4 6.07694,-5.2e-4 z"
         id="path856"
         inkscape:connector-curvature="0" />
      <path
         style="fill:#0c79a9;stroke-width:0.16177382"
         d="m 25.230015,202.85122 c -0.04224,-0.11131 -0.05819,-34.01716 -0.03543,-75.34633 l 0.04137,-75.143935 h 75.305705 75.30572 v 75.305715 75.30571 l -75.27028,0.0406 c -60.131546,0.0324 -75.285727,-9e-5 -75.347082,-0.16178 z M 105.03198,172.2758 c 0.20638,-0.25756 35.95314,-88.976241 35.95314,-89.230893 0,-0.28316 -11.70739,-0.270762 -11.92552,0.01264 -0.0856,0.111219 -5.9679,15.380646 -13.07176,33.932063 -11.40964,29.79577 -15.07871,39.68541 -16.399971,44.2047 -0.505363,1.72855 -0.79771,1.71044 -1.305406,-0.0809 C 97.14165,157.08823 94.060184,148.49383 82.770767,117.85029 75.913942,99.238407 70.195213,83.750586 70.062481,83.432912 L 69.821148,82.85532 h -6.317432 c -4.043495,0 -6.317435,0.05741 -6.317435,0.159491 0,0.2487 35.430615,89.028209 35.621806,89.258579 0.24529,0.29555 11.987143,0.29787 12.223893,0.002 z"
         id="path854"
         inkscape:connector-curvature="0" />
      <path
         style="fill:#0a6188;stroke-width:0.16177382"
         d="m 25.349193,202.85914 c -0.283015,-0.28302 -0.283015,-150.101928 0,-150.384944 0.283016,-0.283015 150.101927,-0.283015 150.384947,0 0.28301,0.283016 0.28301,150.101924 0,150.384944 -0.28302,0.28301 -150.101931,0.28301 -150.384947,0 z m 97.792167,-75.11159 c 9.89848,-24.55726 17.99911,-44.705043 18.00139,-44.772846 0.002,-0.0678 -2.739,-0.1042 -6.09174,-0.08089 l -6.09588,0.04239 -12.9169,33.729846 c -13.1976,34.46286 -14.51667,37.99353 -15.98613,42.78917 -0.463482,1.51259 -0.895452,2.80784 -0.959935,2.87834 -0.217021,0.23729 -0.454719,-0.28009 -1.056156,-2.29885 -1.333662,-4.4765 -4.008884,-11.91056 -15.752191,-43.7731 L 70.001353,82.936207 63.51293,82.893929 c -3.568632,-0.02325 -6.488423,-0.01005 -6.488423,0.02935 0,0.109702 35.439912,88.948401 35.613386,89.273551 0.141757,0.2657 0.570688,0.28215 6.329142,0.24266 l 6.177075,-0.0424 z"
         id="path852"
         inkscape:connector-curvature="0" />
      <path
         style="fill:#074d6c;stroke-width:0.16177382"
         d="M 25.316839,127.66667 V 52.441842 h 75.224821 75.22483 v 75.224828 75.22482 H 100.54166 25.316839 Z m 79.857201,44.77604 c 0.32,-0.51777 36.09933,-89.513629 36.03157,-89.623267 -0.10171,-0.164561 -11.88832,-0.159549 -12.1476,0.0052 -0.23454,0.149002 -25.67999,66.536837 -27.35617,71.372967 -0.63219,1.824 -1.48761,4.39757 -1.900939,5.71905 -0.843013,2.69526 -0.940231,2.75703 -1.437961,0.91368 C 97.443577,157.42542 93.916296,147.59066 82.66829,117.07048 75.749311,98.296631 70.0063,82.882723 69.906041,82.817353 c -0.100258,-0.06537 -3.005504,-0.119968 -6.456101,-0.12133 -5.323031,-0.0021 -6.287407,0.03295 -6.363519,0.231293 -0.08221,0.214227 35.225172,89.048474 35.57606,89.510254 0.219878,0.28937 12.332819,0.29434 12.511559,0.005 z"
         id="path850"
         inkscape:connector-curvature="0" />
      <path
         style="fill:#043347;stroke-width:0.16177382"
         d="m 25.391789,202.68945 c -0.04224,-0.11131 -0.05818,-33.94436 -0.03543,-75.18456 l 0.04137,-74.982161 h 75.143931 75.14394 v 75.143941 75.14394 l -75.1085,0.0406 c -60.002125,0.0324 -75.123953,-9e-5 -75.185308,-0.16177 z m 80.129661,-30.81809 c 1.03035,-2.41244 35.68795,-88.512433 35.75,-88.813823 l 0.0749,-0.363991 h -6.2354 -6.23539 l -0.51488,1.334634 c -4.8758,12.638619 -25.64542,67.01231 -26.27689,68.79141 -0.66109,1.86258 -2.316089,6.91813 -2.926912,8.94091 -0.140482,0.46522 -0.384031,0.13167 -0.708739,-0.97064 -1.316415,-4.46896 -4.419143,-13.117 -15.564558,-43.3821 C 75.934424,98.53738 70.176285,83.006983 70.087756,82.895763 69.963749,82.73997 68.423188,82.693546 63.377228,82.693546 h -6.54957 l 0.09344,0.3723 c 0.07447,0.296696 34.953403,87.872304 35.529852,89.209954 l 0.156859,0.36399 h 6.292727 6.292724 z"
         id="path848"
         inkscape:connector-curvature="0" />
      <path
         style="fill:#000e15;stroke-width:0.16177382"
         d="M 25.478613,127.66667 V 52.603616 h 75.063047 75.06306 v 75.063054 75.06305 H 100.54166 25.478613 Z m 79.893667,44.85179 c 0.57067,-1.07311 36.10131,-89.58336 36.03294,-89.761539 -0.0717,-0.186914 -1.12436,-0.224728 -6.19844,-0.222672 -3.36162,0.0013 -6.20031,0.05858 -6.30821,0.127143 -0.23228,0.147612 -25.68429,66.551038 -27.35736,71.374408 -0.63268,1.824 -1.4517,4.28094 -1.820044,5.45987 -0.368343,1.17892 -0.721513,2.1435 -0.784823,2.1435 -0.06331,0 -0.394068,-0.92818 -0.735016,-2.06262 -0.34095,-1.13443 -1.110785,-3.51858 -1.710742,-5.29809 -1.673316,-4.96315 -26.215019,-71.487804 -26.422499,-71.622881 -0.100408,-0.06537 -3.114972,-0.119968 -6.699033,-0.12133 -5.199477,-0.002 -6.532784,0.04003 -6.597178,0.207834 -0.06749,0.175872 35.142018,88.728647 35.676594,89.727517 0.174494,0.32604 0.289995,0.33196 6.475458,0.33196 5.832693,0 6.308913,-0.0209 6.448353,-0.2831 z"
         id="path846"
         inkscape:connector-curvature="0" />
      <path
         style="fill:#000000;stroke-width:0.16177382"
         d="M 25.640386,127.66667 V 52.765389 h 74.901274 74.90128 v 74.901281 74.90128 H 100.54166 25.640386 Z m 79.820804,44.93268 c 0.43515,-0.67248 36.19181,-89.59752 36.13848,-89.87463 -0.0483,-0.250845 -0.58518,-0.277387 -6.39519,-0.316151 l -6.34248,-0.04232 -0.23109,0.365864 c -0.33286,0.52699 -25.62431,66.651237 -27.11781,70.899257 -0.6882,1.95746 -1.532172,4.48548 -1.8755,5.61782 -0.343328,1.13235 -0.671369,2.00593 -0.728983,1.94129 -0.05761,-0.0646 -0.378254,-1.0275 -0.712536,-2.13969 -0.334282,-1.1122 -1.102845,-3.47931 -1.70792,-5.26026 -1.427616,-4.20198 -26.015551,-70.952767 -26.233569,-71.218317 -0.127816,-0.155682 -1.666176,-0.202218 -6.684823,-0.202218 -3.585339,0 -6.633951,0.04419 -6.774691,0.0982 -0.140741,0.05401 -0.255892,0.19367 -0.255892,0.310362 0,0.363371 35.776397,89.935283 35.971735,90.060973 0.101593,0.0654 3.003967,0.11997 6.44972,0.12133 l 6.265009,0.002 0.23554,-0.364 z"
         id="path844"
         inkscape:connector-curvature="0" />
    </g>
  </g>
</svg>
